<?xml version="1.0" encoding="utf-8"?>
<!DOCTYPE svg PUBLIC "-//W3C//DTD SVG 1.1//EN" "http://www.w3.org/Graphics/SVG/1.1/DTD/svg11.dtd">
<svg style="width:308px;height:308px;" version="1.1" id="图形" xmlns="http://www.w3.org/2000/svg" xmlns:xlink="http://www.w3.org/1999/xlink" x="0px" y="0px" width="1024px" height="1024px" viewBox="0 0 1024 1024" enable-background="new 0 0 1024 1024" xml:space="preserve">
  <path class="svgpath" data-index="path_0" fill="#ecf0f1" d="M978.944 404.8l-75.472 0c-3.92-14.272-8.72-28.656-14.672-43.648l-4.416-10.624c-5.84-13.472-12.48-26.752-19.76-39.52l53.376-53.376c5.488-5.488 8.512-12.768 8.512-20.528 0-7.744-3.024-15.04-8.512-20.528l-110.56-110.56c-10.992-10.976-30.112-10.976-41.072 0l-53.376 53.376c-12.96-7.392-26.64-14.176-41.92-20.8l-9.92-4.064c-13.648-5.392-27.696-10.08-41.952-14L619.2 45.04c0-16-13.024-29.04-29.04-29.04l-156.336 0c-16.016 0-29.04 13.04-29.04 29.04l0 75.456c-14.272 3.92-28.336 8.624-41.936 14l-12.288 5.088c-13.456 5.824-26.72 12.448-39.568 19.76l-53.376-53.376c-10.976-10.976-30.096-10.976-41.072 0l-110.528 110.56c-5.488 5.488-8.496 12.784-8.496 20.528 0 7.76 3.008 15.04 8.496 20.528l53.376 53.376c-7.392 12.976-14.24 26.752-20.992 42.416l-3.872 9.424c-5.392 13.632-10.08 27.68-13.984 41.952L45.024 404.752c-16 0-29.024 13.04-29.024 29.04l0 156.352c0 16 13.024 29.008 29.024 29.008l75.472 0c3.952 14.336 8.768 28.752 14.768 43.92l4.32 10.384c5.856 13.504 12.48 26.752 19.76 39.504L106 766.4c-11.328 11.312-11.328 29.744 0 41.056l110.528 110.528c10.976 10.944 30.096 11.008 41.072 0l53.376-53.376c12.816 7.312 26.016 13.952 39.376 19.728l9.088 3.792 3.408 1.36c13.632 5.392 27.664 10.08 41.92 13.968l0 75.472c0 16 13.024 29.04 29.04 29.04l156.336 0c16.016 0 29.04-13.04 29.04-29.04l0-75.472c14.304-3.92 28.672-8.752 43.584-14.64l10.672-4.416c13.472-5.856 26.72-12.48 39.536-19.808l53.376 53.376c10.96 10.944 30.08 11.008 41.072 0l110.56-110.528c11.328-11.312 11.328-29.744 0-41.056l-53.376-53.408c7.328-12.848 14.112-26.448 20.608-41.52l1.744-4.096 2.512-6.256c5.424-13.712 10.096-27.744 13.984-41.92l75.472 0c16.016 0 29.056-13.008 29.056-29.008l0-156.352C1008 417.84 994.976 404.8 978.944 404.8zM964.864 583.696l-95.248 0-3.04 12.848c-3.968 16.704-9.2 33.312-16.144 50.896l-1.648 4.08-2.352 5.52c-6.864 15.856-14.928 31.312-23.92 45.888l-6.928 11.248 63.024 78.176-86.256 86.256-78.16-63.008-11.248 6.912c-14.688 9.04-30.16 17.088-48.064 24.896l-3.392 1.408-5.536 2.256c-16 6.304-32.624 11.552-49.424 15.568l-19.776 4.384-0.048 93.872-129.392 0-0.304-94.368-19.536-3.888c-16.816-4.016-33.456-9.264-52.368-16.768l-4.576-1.888-3.536-1.504c-15.792-6.848-31.232-14.912-45.936-23.952l-11.232-6.912-56.592 63.008-107.824-107.824 63.024-56.608-6.928-11.248c-9.008-14.576-17.056-30.048-24.64-47.552l-1.632-3.856-2.256-5.552c-6.32-16.016-11.568-32.624-15.552-49.456l-3.056-12.816L59.136 583.712l0-143.408 95.216 0 3.056-12.816c4.016-16.832 9.248-33.472 16.432-51.568l1.376-3.36 2.368-5.584c6.8-15.728 14.864-31.184 23.92-45.936l6.912-11.216-67.328-67.328 101.408-101.424 67.328 67.328 11.232-6.912c14.72-9.072 30.16-17.088 47.424-24.56l4.048-1.696 5.584-2.256c15.92-6.336 32.528-11.552 49.344-15.568l12.848-3.04L440.304 59.136l143.408 0 0 95.248 12.848 3.04c16.8 3.984 33.408 9.232 51.568 16.4l3.568 1.472 5.344 2.288c15.76 6.816 31.2 14.848 45.92 23.904l11.248 6.912 67.328-67.328 101.424 101.424-67.328 67.328 6.912 11.216c9.024 14.656 17.056 30.112 24.672 47.728l3.856 9.296c6.352 16.08 11.584 32.688 15.536 49.376l3.04 12.848 95.248 0L964.896 583.696zM512.016 296.352c-118.912 0-215.664 96.72-215.664 215.632 0 118.928 96.752 215.664 215.664 215.664 118.912 0 215.648-96.752 215.648-215.664C727.648 393.072 630.912 296.352 512.016 296.352zM512 684.528c-95.136 0-172.528-77.424-172.528-172.544 0-95.12 77.392-172.512 172.528-172.512 95.12 0 172.512 77.376 172.512 172.512C684.528 607.104 607.12 684.528 512 684.528z" />

</svg>
